<svg xmlns="http://www.w3.org/2000/svg" viewBox="0 0 400 260" width="400" height="260" role="img" aria-label="">
<defs>
<linearGradient id="bg" x1="0" y1="0" x2="1" y2="1">
<stop offset="0" stop-color="#eef2f8"/><stop offset="1" stop-color="#dfe7f2"/>
</linearGradient>
</defs>
<rect width="400" height="260" fill="url(#bg)"/>
<g stroke="#527bbd" stroke-opacity=".35" stroke-width="1.4" fill="none">
<path d="M200 130 L108 74"/><path d="M200 130 L292 74"/><path d="M200 130 L96 168"/>
<path d="M200 130 L300 176"/><path d="M200 130 L200 48"/><path d="M200 130 L168 214"/>
<path d="M200 130 L258 210"/>
</g>
<g fill="#527bbd">
<circle cx="200" cy="130" r="15" fill-opacity=".9"/>
<circle cx="108" cy="74" r="7.5" fill-opacity=".55"/>
<circle cx="292" cy="74" r="7.5" fill-opacity=".55"/>
<circle cx="96" cy="168" r="7.5" fill-opacity=".55"/>
<circle cx="300" cy="176" r="7.5" fill-opacity=".55"/>
<circle cx="200" cy="48" r="7.5" fill-opacity=".55"/>
<circle cx="168" cy="214" r="7.5" fill-opacity=".55"/>
<circle cx="258" cy="210" r="7.5" fill-opacity=".55"/>
</g>
</svg>
